<svg id="Layer_1" data-name="Layer 1" xmlns="http://www.w3.org/2000/svg" xmlns:xlink="http://www.w3.org/1999/xlink" viewBox="0 0 823 497.15"><defs><style>.cls-1{fill:none;}.cls-2{clip-path:url(#clip-path);}.cls-3{fill:url(#linear-gradient);}.cls-4{fill:url(#linear-gradient-2);}.cls-5{fill:url(#linear-gradient-3);}.cls-6{fill:url(#linear-gradient-4);}</style><clipPath id="clip-path"><rect class="cls-1" x="114" y="173.58" width="595" height="150"/></clipPath><linearGradient id="linear-gradient" x1="654.08" y1="-1188.63" x2="555.19" y2="-930.61" gradientTransform="matrix(1, 0, 0, -1, 0, -791.79)" gradientUnits="userSpaceOnUse"><stop offset="0" stop-color="#9898ff"/><stop offset="0.9" stop-color="#6ae1d9"/></linearGradient><linearGradient id="linear-gradient-2" x1="708.86" y1="-1167.63" x2="609.98" y2="-909.61" xlink:href="#linear-gradient"/><linearGradient id="linear-gradient-3" x1="684.24" y1="-1177.07" x2="585.36" y2="-919.05" xlink:href="#linear-gradient"/><linearGradient id="linear-gradient-4" x1="672.17" y1="-1181.69" x2="573.29" y2="-923.67" xlink:href="#linear-gradient"/></defs><g class="cls-2"><path class="cls-3" d="M557.39,210.58V277.9c0,20.44,17.1,37,38.19,37h0a37.37,37.37,0,0,0,37.7-37.22l.5-33.45V210.58c0-20.44-17.11-37-38.2-37h0C574.49,173.58,557.39,190.14,557.39,210.58Z"/><path class="cls-4" d="M633.31,277.67v0c0,20.44,16.61,37,37.71,37h0c21.1,0,38.2-16.57,38.2-37v0c0-20.44-17.1-37-38.2-37h0C649.92,240.66,633.31,257.23,633.31,277.67Z"/><path class="cls-5" d="M633.31,277.08l.25-28s.49,13.89,9.4,3.83C643.21,255,633.31,277.08,633.31,277.08Z"/><path class="cls-6" d="M635,271.33s-15.11,20.32-5.93,23.48c.25-.24,4-8.86,8.41,0C638.26,292.76,635,271.33,635,271.33Z"/><path d="M126,309.69V190h21.55V235.3h3.07a20.23,20.23,0,0,1,4.28-5.47,21.8,21.8,0,0,1,7.69-4.44,35.43,35.43,0,0,1,12.49-1.89,31.78,31.78,0,0,1,17.27,4.62A30.16,30.16,0,0,1,204,240.6a39.49,39.49,0,0,1,4.1,18.47v50.62H186.5V260.78q0-9.57-4.78-14.36-4.62-4.78-13.34-4.79-9.91,0-15.39,6.67-5.48,6.49-5.47,18.3v43.09Z"/><path d="M262.33,311.06a33.7,33.7,0,0,1-17.45-4.45A31.57,31.57,0,0,1,233.43,294a40,40,0,0,1-4.11-18.47V224.87h21.55v48.91q0,9.57,4.62,14.36,4.78,4.78,13.5,4.79,9.93,0,15.39-6.5,5.47-6.66,5.48-18.47V224.87H311.4v84.82H290.2V298.57h-3.08q-2.06,4.28-7.69,8.38T262.33,311.06Z"/><path d="M386.34,312.08q-11.46,0-17.61-3.93a27.79,27.79,0,0,1-9.07-8.72h-3.08v10.26h-21.2V190h21.55v44.63H360a26,26,0,0,1,5-5.81,25.23,25.23,0,0,1,8.38-4.45,39.29,39.29,0,0,1,13-1.88,37.13,37.13,0,0,1,33,19.83q5.31,9.75,5.3,23.6v2.74q0,13.85-5.3,23.6a36.29,36.29,0,0,1-33,19.83Zm-6.5-18.81A23.21,23.21,0,0,0,396.43,287q6.66-6.51,6.67-18.81v-1.71q0-12.31-6.67-18.64-6.49-6.51-16.59-6.5a22.81,22.81,0,0,0-16.59,6.5q-6.66,6.32-6.67,18.64v1.71q0,12.3,6.67,18.81A23.21,23.21,0,0,0,379.84,293.27Z"/><path d="M479.65,312.08q-16.59,0-27.19-7.18t-12.82-20.52l19.83-5.13a21.68,21.68,0,0,0,3.94,9.41,16.75,16.75,0,0,0,7,4.95,29.9,29.9,0,0,0,9.23,1.37q7.53,0,11.12-2.56a8.17,8.17,0,0,0,3.59-6.67,6.59,6.59,0,0,0-3.42-6q-3.42-2.22-10.95-3.59l-4.78-.85A90.6,90.6,0,0,1,459,270.7a30.33,30.33,0,0,1-11.8-8.38q-4.44-5.29-4.44-13.68,0-12.64,9.23-19.32,9.24-6.84,24.28-6.84,14.19,0,23.6,6.33a29.12,29.12,0,0,1,12.31,16.58l-20,6.16q-1.38-6.5-5.65-9.24a18.11,18.11,0,0,0-10.26-2.73c-4.1,0-7.24.74-9.4,2.22a6.5,6.5,0,0,0-3.25,5.82,6.72,6.72,0,0,0,3.42,6.15,30.42,30.42,0,0,0,9.23,2.91l4.79.85a97.25,97.25,0,0,1,17.27,4.62,27.21,27.21,0,0,1,12.31,8q4.62,5.13,4.62,14,0,13.34-9.75,20.69Q495.9,312.09,479.65,312.08Z"/></g></svg>